<mxfile host="app.diagrams.net" modified="2023-08-21T00:31:22.663Z" agent="Mozilla/5.0 (Windows NT 10.0; Win64; x64) AppleWebKit/537.36 (KHTML, like Gecko) Chrome/115.0.0.0 Safari/537.36" etag="XsZIFrEZMJVZdX_xZ6uG" version="21.6.8" type="github">
  <diagram name="페이지-1" id="gcEyg5z4TsiOClXMAxC2">
    <mxGraphModel dx="1877" dy="542" grid="1" gridSize="10" guides="1" tooltips="1" connect="1" arrows="1" fold="1" page="1" pageScale="1" pageWidth="827" pageHeight="1169" math="0" shadow="0">
      <root>
        <mxCell id="0" />
        <mxCell id="1" parent="0" />
        <mxCell id="VqCOLRqgt1VcQ0-lmkxe-40" style="edgeStyle=orthogonalEdgeStyle;rounded=0;orthogonalLoop=1;jettySize=auto;html=1;entryX=0.5;entryY=0;entryDx=0;entryDy=0;startArrow=ERmandOne;startFill=0;endArrow=ERmandOne;endFill=0;" parent="1" source="VqCOLRqgt1VcQ0-lmkxe-1" target="VqCOLRqgt1VcQ0-lmkxe-13" edge="1">
          <mxGeometry relative="1" as="geometry" />
        </mxCell>
        <mxCell id="VqCOLRqgt1VcQ0-lmkxe-1" value="&lt;h2&gt;요율 기본&lt;/h2&gt;" style="swimlane;fontStyle=0;childLayout=stackLayout;horizontal=1;startSize=30;horizontalStack=0;resizeParent=1;resizeParentMax=0;resizeLast=0;collapsible=1;marginBottom=0;whiteSpace=wrap;html=1;fillColor=#f8cecc;strokeColor=#b85450;" parent="1" vertex="1">
          <mxGeometry x="-250" y="70" width="140" height="120" as="geometry" />
        </mxCell>
        <mxCell id="VqCOLRqgt1VcQ0-lmkxe-2" value="* 요율 식별자(PK)" style="text;strokeColor=#d6b656;fillColor=#fff2cc;align=left;verticalAlign=middle;spacingLeft=4;spacingRight=4;overflow=hidden;points=[[0,0.5],[1,0.5]];portConstraint=eastwest;rotatable=0;whiteSpace=wrap;html=1;" parent="VqCOLRqgt1VcQ0-lmkxe-1" vertex="1">
          <mxGeometry y="30" width="140" height="30" as="geometry" />
        </mxCell>
        <mxCell id="VqCOLRqgt1VcQ0-lmkxe-3" value="요금 식별자(FK)" style="text;strokeColor=none;fillColor=none;align=left;verticalAlign=middle;spacingLeft=4;spacingRight=4;overflow=hidden;points=[[0,0.5],[1,0.5]];portConstraint=eastwest;rotatable=0;whiteSpace=wrap;html=1;" parent="VqCOLRqgt1VcQ0-lmkxe-1" vertex="1">
          <mxGeometry y="60" width="140" height="30" as="geometry" />
        </mxCell>
        <mxCell id="VqCOLRqgt1VcQ0-lmkxe-4" value="과금 식별자(FK)" style="text;strokeColor=none;fillColor=none;align=left;verticalAlign=middle;spacingLeft=4;spacingRight=4;overflow=hidden;points=[[0,0.5],[1,0.5]];portConstraint=eastwest;rotatable=0;whiteSpace=wrap;html=1;" parent="VqCOLRqgt1VcQ0-lmkxe-1" vertex="1">
          <mxGeometry y="90" width="140" height="30" as="geometry" />
        </mxCell>
        <mxCell id="VqCOLRqgt1VcQ0-lmkxe-41" style="edgeStyle=orthogonalEdgeStyle;rounded=0;orthogonalLoop=1;jettySize=auto;html=1;entryX=0.5;entryY=0;entryDx=0;entryDy=0;startArrow=ERoneToMany;startFill=0;endArrow=ERzeroToOne;endFill=0;" parent="1" source="VqCOLRqgt1VcQ0-lmkxe-5" target="VqCOLRqgt1VcQ0-lmkxe-25" edge="1">
          <mxGeometry relative="1" as="geometry" />
        </mxCell>
        <mxCell id="VqCOLRqgt1VcQ0-lmkxe-42" style="edgeStyle=orthogonalEdgeStyle;rounded=0;orthogonalLoop=1;jettySize=auto;html=1;endArrow=ERzeroToOne;endFill=0;" parent="1" target="VqCOLRqgt1VcQ0-lmkxe-37" edge="1">
          <mxGeometry relative="1" as="geometry">
            <mxPoint x="-540.06" y="229.9988235294117" as="sourcePoint" />
            <mxPoint x="-440.05999999999995" y="389.93000000000006" as="targetPoint" />
          </mxGeometry>
        </mxCell>
        <mxCell id="VqCOLRqgt1VcQ0-lmkxe-43" style="edgeStyle=orthogonalEdgeStyle;rounded=0;orthogonalLoop=1;jettySize=auto;html=1;endArrow=ERzeroToOne;endFill=0;" parent="1" target="VqCOLRqgt1VcQ0-lmkxe-19" edge="1">
          <mxGeometry relative="1" as="geometry">
            <mxPoint x="-540" y="230" as="sourcePoint" />
          </mxGeometry>
        </mxCell>
        <mxCell id="VqCOLRqgt1VcQ0-lmkxe-5" value="&lt;h2&gt;요금 기본&lt;/h2&gt;" style="swimlane;fontStyle=0;childLayout=stackLayout;horizontal=1;startSize=30;horizontalStack=0;resizeParent=1;resizeParentMax=0;resizeLast=0;collapsible=1;marginBottom=0;whiteSpace=wrap;html=1;fillColor=#b0e3e6;strokeColor=#0e8088;" parent="1" vertex="1">
          <mxGeometry x="-610" y="70" width="140" height="90" as="geometry" />
        </mxCell>
        <mxCell id="VqCOLRqgt1VcQ0-lmkxe-6" value="* 요금 식별자(PK)" style="text;strokeColor=#d6b656;fillColor=#fff2cc;align=left;verticalAlign=middle;spacingLeft=4;spacingRight=4;overflow=hidden;points=[[0,0.5],[1,0.5]];portConstraint=eastwest;rotatable=0;whiteSpace=wrap;html=1;" parent="VqCOLRqgt1VcQ0-lmkxe-5" vertex="1">
          <mxGeometry y="30" width="140" height="30" as="geometry" />
        </mxCell>
        <mxCell id="VqCOLRqgt1VcQ0-lmkxe-7" value="요금 종류 코드(FK)" style="text;strokeColor=none;fillColor=none;align=left;verticalAlign=middle;spacingLeft=4;spacingRight=4;overflow=hidden;points=[[0,0.5],[1,0.5]];portConstraint=eastwest;rotatable=0;whiteSpace=wrap;html=1;" parent="VqCOLRqgt1VcQ0-lmkxe-5" vertex="1">
          <mxGeometry y="60" width="140" height="30" as="geometry" />
        </mxCell>
        <mxCell id="VqCOLRqgt1VcQ0-lmkxe-9" value="&lt;h2&gt;과금 기본&lt;/h2&gt;" style="swimlane;fontStyle=0;childLayout=stackLayout;horizontal=1;startSize=30;horizontalStack=0;resizeParent=1;resizeParentMax=0;resizeLast=0;collapsible=1;marginBottom=0;whiteSpace=wrap;html=1;fillColor=#e1d5e7;strokeColor=#9673a6;" parent="1" vertex="1">
          <mxGeometry y="70" width="140" height="120" as="geometry" />
        </mxCell>
        <mxCell id="VqCOLRqgt1VcQ0-lmkxe-50" value="" style="endArrow=none;html=1;rounded=0;startArrow=ERmandOne;startFill=0;" parent="VqCOLRqgt1VcQ0-lmkxe-9" edge="1">
          <mxGeometry width="50" height="50" relative="1" as="geometry">
            <mxPoint x="-110" y="20" as="sourcePoint" />
            <mxPoint y="20" as="targetPoint" />
          </mxGeometry>
        </mxCell>
        <mxCell id="VqCOLRqgt1VcQ0-lmkxe-10" value="* 과금 식별자(PK)" style="text;strokeColor=#d6b656;fillColor=#fff2cc;align=left;verticalAlign=middle;spacingLeft=4;spacingRight=4;overflow=hidden;points=[[0,0.5],[1,0.5]];portConstraint=eastwest;rotatable=0;whiteSpace=wrap;html=1;" parent="VqCOLRqgt1VcQ0-lmkxe-9" vertex="1">
          <mxGeometry y="30" width="140" height="30" as="geometry" />
        </mxCell>
        <mxCell id="VqCOLRqgt1VcQ0-lmkxe-11" value="과금 유형 코드(FK)" style="text;strokeColor=none;fillColor=none;align=left;verticalAlign=middle;spacingLeft=4;spacingRight=4;overflow=hidden;points=[[0,0.5],[1,0.5]];portConstraint=eastwest;rotatable=0;whiteSpace=wrap;html=1;" parent="VqCOLRqgt1VcQ0-lmkxe-9" vertex="1">
          <mxGeometry y="60" width="140" height="30" as="geometry" />
        </mxCell>
        <mxCell id="VqCOLRqgt1VcQ0-lmkxe-12" value="과금 기준값" style="text;strokeColor=none;fillColor=none;align=left;verticalAlign=middle;spacingLeft=4;spacingRight=4;overflow=hidden;points=[[0,0.5],[1,0.5]];portConstraint=eastwest;rotatable=0;whiteSpace=wrap;html=1;" parent="VqCOLRqgt1VcQ0-lmkxe-9" vertex="1">
          <mxGeometry y="90" width="140" height="30" as="geometry" />
        </mxCell>
        <mxCell id="VqCOLRqgt1VcQ0-lmkxe-13" value="&lt;h3&gt;요율 속성&lt;/h3&gt;" style="swimlane;fontStyle=0;childLayout=stackLayout;horizontal=1;startSize=30;horizontalStack=0;resizeParent=1;resizeParentMax=0;resizeLast=0;collapsible=1;marginBottom=0;whiteSpace=wrap;html=1;fillColor=#f8cecc;strokeColor=#b85450;" parent="1" vertex="1">
          <mxGeometry x="-250" y="280" width="140" height="180" as="geometry" />
        </mxCell>
        <mxCell id="VqCOLRqgt1VcQ0-lmkxe-14" value="* 요율 식별자(PK)" style="text;strokeColor=#d6b656;fillColor=#fff2cc;align=left;verticalAlign=middle;spacingLeft=4;spacingRight=4;overflow=hidden;points=[[0,0.5],[1,0.5]];portConstraint=eastwest;rotatable=0;whiteSpace=wrap;html=1;" parent="VqCOLRqgt1VcQ0-lmkxe-13" vertex="1">
          <mxGeometry y="30" width="140" height="30" as="geometry" />
        </mxCell>
        <mxCell id="VqCOLRqgt1VcQ0-lmkxe-15" value="시작값" style="text;strokeColor=none;fillColor=none;align=left;verticalAlign=middle;spacingLeft=4;spacingRight=4;overflow=hidden;points=[[0,0.5],[1,0.5]];portConstraint=eastwest;rotatable=0;whiteSpace=wrap;html=1;" parent="VqCOLRqgt1VcQ0-lmkxe-13" vertex="1">
          <mxGeometry y="60" width="140" height="30" as="geometry" />
        </mxCell>
        <mxCell id="VqCOLRqgt1VcQ0-lmkxe-16" value="종료값" style="text;strokeColor=none;fillColor=none;align=left;verticalAlign=middle;spacingLeft=4;spacingRight=4;overflow=hidden;points=[[0,0.5],[1,0.5]];portConstraint=eastwest;rotatable=0;whiteSpace=wrap;html=1;" parent="VqCOLRqgt1VcQ0-lmkxe-13" vertex="1">
          <mxGeometry y="90" width="140" height="30" as="geometry" />
        </mxCell>
        <mxCell id="VqCOLRqgt1VcQ0-lmkxe-17" value="적용시작일" style="text;strokeColor=none;fillColor=none;align=left;verticalAlign=middle;spacingLeft=4;spacingRight=4;overflow=hidden;points=[[0,0.5],[1,0.5]];portConstraint=eastwest;rotatable=0;whiteSpace=wrap;html=1;" parent="VqCOLRqgt1VcQ0-lmkxe-13" vertex="1">
          <mxGeometry y="120" width="140" height="30" as="geometry" />
        </mxCell>
        <mxCell id="VqCOLRqgt1VcQ0-lmkxe-18" value="적용종료일" style="text;strokeColor=none;fillColor=none;align=left;verticalAlign=middle;spacingLeft=4;spacingRight=4;overflow=hidden;points=[[0,0.5],[1,0.5]];portConstraint=eastwest;rotatable=0;whiteSpace=wrap;html=1;" parent="VqCOLRqgt1VcQ0-lmkxe-13" vertex="1">
          <mxGeometry y="150" width="140" height="30" as="geometry" />
        </mxCell>
        <mxCell id="VqCOLRqgt1VcQ0-lmkxe-19" value="&lt;h3&gt;유료 속성&lt;/h3&gt;" style="swimlane;fontStyle=0;childLayout=stackLayout;horizontal=1;startSize=30;horizontalStack=0;resizeParent=1;resizeParentMax=0;resizeLast=0;collapsible=1;marginBottom=0;whiteSpace=wrap;html=1;fillColor=#b0e3e6;strokeColor=#0e8088;" parent="1" vertex="1">
          <mxGeometry x="-780" y="280" width="140" height="180" as="geometry" />
        </mxCell>
        <mxCell id="VqCOLRqgt1VcQ0-lmkxe-20" value="* 요금 종류 코드(PK)" style="text;strokeColor=#d6b656;fillColor=#fff2cc;align=left;verticalAlign=middle;spacingLeft=4;spacingRight=4;overflow=hidden;points=[[0,0.5],[1,0.5]];portConstraint=eastwest;rotatable=0;whiteSpace=wrap;html=1;" parent="VqCOLRqgt1VcQ0-lmkxe-19" vertex="1">
          <mxGeometry y="30" width="140" height="30" as="geometry" />
        </mxCell>
        <mxCell id="VqCOLRqgt1VcQ0-lmkxe-21" value="요율값" style="text;strokeColor=none;fillColor=none;align=left;verticalAlign=middle;spacingLeft=4;spacingRight=4;overflow=hidden;points=[[0,0.5],[1,0.5]];portConstraint=eastwest;rotatable=0;whiteSpace=wrap;html=1;" parent="VqCOLRqgt1VcQ0-lmkxe-19" vertex="1">
          <mxGeometry y="60" width="140" height="30" as="geometry" />
        </mxCell>
        <mxCell id="VqCOLRqgt1VcQ0-lmkxe-22" value="외화요율값" style="text;strokeColor=none;fillColor=none;align=left;verticalAlign=middle;spacingLeft=4;spacingRight=4;overflow=hidden;points=[[0,0.5],[1,0.5]];portConstraint=eastwest;rotatable=0;whiteSpace=wrap;html=1;" parent="VqCOLRqgt1VcQ0-lmkxe-19" vertex="1">
          <mxGeometry y="90" width="140" height="30" as="geometry" />
        </mxCell>
        <mxCell id="VqCOLRqgt1VcQ0-lmkxe-23" value="외화단위값" style="text;strokeColor=none;fillColor=none;align=left;verticalAlign=middle;spacingLeft=4;spacingRight=4;overflow=hidden;points=[[0,0.5],[1,0.5]];portConstraint=eastwest;rotatable=0;whiteSpace=wrap;html=1;" parent="VqCOLRqgt1VcQ0-lmkxe-19" vertex="1">
          <mxGeometry y="120" width="140" height="30" as="geometry" />
        </mxCell>
        <mxCell id="VqCOLRqgt1VcQ0-lmkxe-24" value="할인율" style="text;strokeColor=none;fillColor=none;align=left;verticalAlign=middle;spacingLeft=4;spacingRight=4;overflow=hidden;points=[[0,0.5],[1,0.5]];portConstraint=eastwest;rotatable=0;whiteSpace=wrap;html=1;" parent="VqCOLRqgt1VcQ0-lmkxe-19" vertex="1">
          <mxGeometry y="150" width="140" height="30" as="geometry" />
        </mxCell>
        <mxCell id="VqCOLRqgt1VcQ0-lmkxe-25" value="&lt;h3&gt;무료 속성&lt;/h3&gt;" style="swimlane;fontStyle=0;childLayout=stackLayout;horizontal=1;startSize=30;horizontalStack=0;resizeParent=1;resizeParentMax=0;resizeLast=0;collapsible=1;marginBottom=0;whiteSpace=wrap;html=1;fillColor=#b0e3e6;strokeColor=#0e8088;" parent="1" vertex="1">
          <mxGeometry x="-610" y="280" width="140" height="90" as="geometry" />
        </mxCell>
        <mxCell id="VqCOLRqgt1VcQ0-lmkxe-26" value="* 요금 종류 코드(PK)" style="text;strokeColor=#d6b656;fillColor=#fff2cc;align=left;verticalAlign=middle;spacingLeft=4;spacingRight=4;overflow=hidden;points=[[0,0.5],[1,0.5]];portConstraint=eastwest;rotatable=0;whiteSpace=wrap;html=1;" parent="VqCOLRqgt1VcQ0-lmkxe-25" vertex="1">
          <mxGeometry y="30" width="140" height="30" as="geometry" />
        </mxCell>
        <mxCell id="VqCOLRqgt1VcQ0-lmkxe-27" value="공제값" style="text;strokeColor=none;fillColor=none;align=left;verticalAlign=middle;spacingLeft=4;spacingRight=4;overflow=hidden;points=[[0,0.5],[1,0.5]];portConstraint=eastwest;rotatable=0;whiteSpace=wrap;html=1;" parent="VqCOLRqgt1VcQ0-lmkxe-25" vertex="1">
          <mxGeometry y="60" width="140" height="30" as="geometry" />
        </mxCell>
        <mxCell id="VqCOLRqgt1VcQ0-lmkxe-37" value="&lt;h3&gt;할인 속성&lt;/h3&gt;" style="swimlane;fontStyle=0;childLayout=stackLayout;horizontal=1;startSize=30;horizontalStack=0;resizeParent=1;resizeParentMax=0;resizeLast=0;collapsible=1;marginBottom=0;whiteSpace=wrap;html=1;fillColor=#b0e3e6;strokeColor=#0e8088;" parent="1" vertex="1">
          <mxGeometry x="-440" y="280" width="140" height="90" as="geometry" />
        </mxCell>
        <mxCell id="VqCOLRqgt1VcQ0-lmkxe-38" value="* 요금 종류 코드(PK)" style="text;strokeColor=#d6b656;fillColor=#fff2cc;align=left;verticalAlign=middle;spacingLeft=4;spacingRight=4;overflow=hidden;points=[[0,0.5],[1,0.5]];portConstraint=eastwest;rotatable=0;whiteSpace=wrap;html=1;" parent="VqCOLRqgt1VcQ0-lmkxe-37" vertex="1">
          <mxGeometry y="30" width="140" height="30" as="geometry" />
        </mxCell>
        <mxCell id="VqCOLRqgt1VcQ0-lmkxe-39" value="할인율" style="text;strokeColor=none;fillColor=none;align=left;verticalAlign=middle;spacingLeft=4;spacingRight=4;overflow=hidden;points=[[0,0.5],[1,0.5]];portConstraint=eastwest;rotatable=0;whiteSpace=wrap;html=1;" parent="VqCOLRqgt1VcQ0-lmkxe-37" vertex="1">
          <mxGeometry y="60" width="140" height="30" as="geometry" />
        </mxCell>
        <mxCell id="VqCOLRqgt1VcQ0-lmkxe-49" value="" style="endArrow=ERmandOne;html=1;rounded=0;startArrow=ERmandOne;startFill=0;endFill=0;" parent="1" edge="1">
          <mxGeometry width="50" height="50" relative="1" as="geometry">
            <mxPoint x="-470" y="90" as="sourcePoint" />
            <mxPoint x="-250" y="90" as="targetPoint" />
          </mxGeometry>
        </mxCell>
        <mxCell id="VqCOLRqgt1VcQ0-lmkxe-98" style="edgeStyle=orthogonalEdgeStyle;rounded=0;orthogonalLoop=1;jettySize=auto;html=1;entryX=0;entryY=0.5;entryDx=0;entryDy=0;startArrow=ERone;startFill=0;endArrow=ERoneToMany;endFill=0;" parent="1" source="VqCOLRqgt1VcQ0-lmkxe-54" target="VqCOLRqgt1VcQ0-lmkxe-59" edge="1">
          <mxGeometry relative="1" as="geometry" />
        </mxCell>
        <mxCell id="VqCOLRqgt1VcQ0-lmkxe-54" value="&lt;h2&gt;고객기본&lt;/h2&gt;" style="swimlane;fontStyle=0;childLayout=stackLayout;horizontal=1;startSize=30;horizontalStack=0;resizeParent=1;resizeParentMax=0;resizeLast=0;collapsible=1;marginBottom=0;whiteSpace=wrap;html=1;fillColor=#dae8fc;strokeColor=#6c8ebf;" parent="1" vertex="1">
          <mxGeometry x="-780" y="510" width="140" height="90" as="geometry" />
        </mxCell>
        <mxCell id="VqCOLRqgt1VcQ0-lmkxe-55" value="고객식별자(PK)" style="text;strokeColor=#d6b656;fillColor=#fff2cc;align=left;verticalAlign=middle;spacingLeft=4;spacingRight=4;overflow=hidden;points=[[0,0.5],[1,0.5]];portConstraint=eastwest;rotatable=0;whiteSpace=wrap;html=1;" parent="VqCOLRqgt1VcQ0-lmkxe-54" vertex="1">
          <mxGeometry y="30" width="140" height="30" as="geometry" />
        </mxCell>
        <mxCell id="VqCOLRqgt1VcQ0-lmkxe-56" value="고객명" style="text;strokeColor=none;fillColor=none;align=left;verticalAlign=middle;spacingLeft=4;spacingRight=4;overflow=hidden;points=[[0,0.5],[1,0.5]];portConstraint=eastwest;rotatable=0;whiteSpace=wrap;html=1;" parent="VqCOLRqgt1VcQ0-lmkxe-54" vertex="1">
          <mxGeometry y="60" width="140" height="30" as="geometry" />
        </mxCell>
        <mxCell id="VqCOLRqgt1VcQ0-lmkxe-58" value="&lt;h2&gt;주소기본&lt;/h2&gt;" style="swimlane;fontStyle=0;childLayout=stackLayout;horizontal=1;startSize=30;horizontalStack=0;resizeParent=1;resizeParentMax=0;resizeLast=0;collapsible=1;marginBottom=0;whiteSpace=wrap;html=1;fillColor=#dae8fc;strokeColor=#6c8ebf;" parent="1" vertex="1">
          <mxGeometry x="-580" y="510" width="140" height="180" as="geometry" />
        </mxCell>
        <mxCell id="VqCOLRqgt1VcQ0-lmkxe-59" value="주소식별자(PK)" style="text;strokeColor=#d6b656;fillColor=#fff2cc;align=left;verticalAlign=middle;spacingLeft=4;spacingRight=4;overflow=hidden;points=[[0,0.5],[1,0.5]];portConstraint=eastwest;rotatable=0;whiteSpace=wrap;html=1;" parent="VqCOLRqgt1VcQ0-lmkxe-58" vertex="1">
          <mxGeometry y="30" width="140" height="30" as="geometry" />
        </mxCell>
        <mxCell id="VqCOLRqgt1VcQ0-lmkxe-110" value="고객식별자(PK)" style="text;align=left;verticalAlign=middle;spacingLeft=4;spacingRight=4;overflow=hidden;points=[[0,0.5],[1,0.5]];portConstraint=eastwest;rotatable=0;whiteSpace=wrap;html=1;fillColor=#fff2cc;strokeColor=#d6b656;" parent="VqCOLRqgt1VcQ0-lmkxe-58" vertex="1">
          <mxGeometry y="60" width="140" height="30" as="geometry" />
        </mxCell>
        <mxCell id="VqCOLRqgt1VcQ0-lmkxe-61" value="자택주소" style="text;strokeColor=none;fillColor=none;align=left;verticalAlign=middle;spacingLeft=4;spacingRight=4;overflow=hidden;points=[[0,0.5],[1,0.5]];portConstraint=eastwest;rotatable=0;whiteSpace=wrap;html=1;" parent="VqCOLRqgt1VcQ0-lmkxe-58" vertex="1">
          <mxGeometry y="90" width="140" height="30" as="geometry" />
        </mxCell>
        <mxCell id="VqCOLRqgt1VcQ0-lmkxe-62" value="직장주소" style="text;strokeColor=none;fillColor=none;align=left;verticalAlign=middle;spacingLeft=4;spacingRight=4;overflow=hidden;points=[[0,0.5],[1,0.5]];portConstraint=eastwest;rotatable=0;whiteSpace=wrap;html=1;" parent="VqCOLRqgt1VcQ0-lmkxe-58" vertex="1">
          <mxGeometry y="120" width="140" height="30" as="geometry" />
        </mxCell>
        <mxCell id="VqCOLRqgt1VcQ0-lmkxe-63" value="전자주소" style="text;strokeColor=none;fillColor=none;align=left;verticalAlign=middle;spacingLeft=4;spacingRight=4;overflow=hidden;points=[[0,0.5],[1,0.5]];portConstraint=eastwest;rotatable=0;whiteSpace=wrap;html=1;" parent="VqCOLRqgt1VcQ0-lmkxe-58" vertex="1">
          <mxGeometry y="150" width="140" height="30" as="geometry" />
        </mxCell>
        <mxCell id="VqCOLRqgt1VcQ0-lmkxe-65" value="&lt;h2&gt;계약기본&lt;/h2&gt;" style="swimlane;fontStyle=0;childLayout=stackLayout;horizontal=1;startSize=30;horizontalStack=0;resizeParent=1;resizeParentMax=0;resizeLast=0;collapsible=1;marginBottom=0;whiteSpace=wrap;html=1;fillColor=#d5e8d4;strokeColor=#82b366;" parent="1" vertex="1">
          <mxGeometry x="-590" y="730" width="140" height="210" as="geometry" />
        </mxCell>
        <mxCell id="VqCOLRqgt1VcQ0-lmkxe-66" value="계약식별자(PK)" style="text;strokeColor=#d6b656;fillColor=#fff2cc;align=left;verticalAlign=middle;spacingLeft=4;spacingRight=4;overflow=hidden;points=[[0,0.5],[1,0.5]];portConstraint=eastwest;rotatable=0;whiteSpace=wrap;html=1;" parent="VqCOLRqgt1VcQ0-lmkxe-65" vertex="1">
          <mxGeometry y="30" width="140" height="30" as="geometry" />
        </mxCell>
        <mxCell id="VqCOLRqgt1VcQ0-lmkxe-90" value="상품코드" style="text;align=left;verticalAlign=middle;spacingLeft=4;spacingRight=4;overflow=hidden;points=[[0,0.5],[1,0.5]];portConstraint=eastwest;rotatable=0;whiteSpace=wrap;html=1;" parent="VqCOLRqgt1VcQ0-lmkxe-65" vertex="1">
          <mxGeometry y="60" width="140" height="30" as="geometry" />
        </mxCell>
        <mxCell id="VqCOLRqgt1VcQ0-lmkxe-89" value="고객등급코드" style="text;align=left;verticalAlign=middle;spacingLeft=4;spacingRight=4;overflow=hidden;points=[[0,0.5],[1,0.5]];portConstraint=eastwest;rotatable=0;whiteSpace=wrap;html=1;" parent="VqCOLRqgt1VcQ0-lmkxe-65" vertex="1">
          <mxGeometry y="90" width="140" height="30" as="geometry" />
        </mxCell>
        <mxCell id="VqCOLRqgt1VcQ0-lmkxe-86" value="계약상태코드" style="text;strokeColor=none;fillColor=none;align=left;verticalAlign=middle;spacingLeft=4;spacingRight=4;overflow=hidden;points=[[0,0.5],[1,0.5]];portConstraint=eastwest;rotatable=0;whiteSpace=wrap;html=1;" parent="VqCOLRqgt1VcQ0-lmkxe-65" vertex="1">
          <mxGeometry y="120" width="140" height="30" as="geometry" />
        </mxCell>
        <mxCell id="VqCOLRqgt1VcQ0-lmkxe-88" value="계약만기일자" style="text;strokeColor=none;fillColor=none;align=left;verticalAlign=middle;spacingLeft=4;spacingRight=4;overflow=hidden;points=[[0,0.5],[1,0.5]];portConstraint=eastwest;rotatable=0;whiteSpace=wrap;html=1;" parent="VqCOLRqgt1VcQ0-lmkxe-65" vertex="1">
          <mxGeometry y="150" width="140" height="30" as="geometry" />
        </mxCell>
        <mxCell id="VqCOLRqgt1VcQ0-lmkxe-87" value="계약신규일자" style="text;strokeColor=none;fillColor=none;align=left;verticalAlign=middle;spacingLeft=4;spacingRight=4;overflow=hidden;points=[[0,0.5],[1,0.5]];portConstraint=eastwest;rotatable=0;whiteSpace=wrap;html=1;" parent="VqCOLRqgt1VcQ0-lmkxe-65" vertex="1">
          <mxGeometry y="180" width="140" height="30" as="geometry" />
        </mxCell>
        <mxCell id="VqCOLRqgt1VcQ0-lmkxe-74" value="&lt;h2&gt;고객기본&lt;/h2&gt;" style="swimlane;fontStyle=0;childLayout=stackLayout;horizontal=1;startSize=30;horizontalStack=0;resizeParent=1;resizeParentMax=0;resizeLast=0;collapsible=1;marginBottom=0;whiteSpace=wrap;html=1;fillColor=#d5e8d4;strokeColor=#82b366;" parent="1" vertex="1">
          <mxGeometry x="-780" y="730" width="140" height="90" as="geometry" />
        </mxCell>
        <mxCell id="VqCOLRqgt1VcQ0-lmkxe-70" value="고객등급코드" style="text;strokeColor=#d6b656;fillColor=#fff2cc;align=left;verticalAlign=middle;spacingLeft=4;spacingRight=4;overflow=hidden;points=[[0,0.5],[1,0.5]];portConstraint=eastwest;rotatable=0;whiteSpace=wrap;html=1;" parent="VqCOLRqgt1VcQ0-lmkxe-74" vertex="1">
          <mxGeometry y="30" width="140" height="30" as="geometry" />
        </mxCell>
        <mxCell id="VqCOLRqgt1VcQ0-lmkxe-73" value="고객명" style="text;strokeColor=none;fillColor=none;align=left;verticalAlign=middle;spacingLeft=4;spacingRight=4;overflow=hidden;points=[[0,0.5],[1,0.5]];portConstraint=eastwest;rotatable=0;whiteSpace=wrap;html=1;" parent="VqCOLRqgt1VcQ0-lmkxe-74" vertex="1">
          <mxGeometry y="60" width="140" height="30" as="geometry" />
        </mxCell>
        <mxCell id="VqCOLRqgt1VcQ0-lmkxe-96" value="" style="endArrow=ERzeroToMany;html=1;rounded=0;startArrow=ERone;startFill=0;endFill=0;" parent="1" edge="1">
          <mxGeometry width="50" height="50" relative="1" as="geometry">
            <mxPoint x="-640" y="775" as="sourcePoint" />
            <mxPoint x="-590" y="774.58" as="targetPoint" />
          </mxGeometry>
        </mxCell>
        <mxCell id="VqCOLRqgt1VcQ0-lmkxe-109" style="edgeStyle=orthogonalEdgeStyle;rounded=0;orthogonalLoop=1;jettySize=auto;html=1;entryX=0.5;entryY=0;entryDx=0;entryDy=0;endArrow=ERoneToMany;endFill=0;startArrow=ERone;startFill=0;" parent="1" source="VqCOLRqgt1VcQ0-lmkxe-99" target="VqCOLRqgt1VcQ0-lmkxe-104" edge="1">
          <mxGeometry relative="1" as="geometry" />
        </mxCell>
        <mxCell id="VqCOLRqgt1VcQ0-lmkxe-99" value="&lt;h2&gt;고객기본&lt;/h2&gt;" style="swimlane;fontStyle=0;childLayout=stackLayout;horizontal=1;startSize=30;horizontalStack=0;resizeParent=1;resizeParentMax=0;resizeLast=0;collapsible=1;marginBottom=0;whiteSpace=wrap;html=1;fillColor=#e1d5e7;strokeColor=#9673a6;" parent="1" vertex="1">
          <mxGeometry x="-180" y="530" width="140" height="120" as="geometry" />
        </mxCell>
        <mxCell id="VqCOLRqgt1VcQ0-lmkxe-100" value="고객식별자(PK)" style="text;strokeColor=#d6b656;fillColor=#fff2cc;align=left;verticalAlign=middle;spacingLeft=4;spacingRight=4;overflow=hidden;points=[[0,0.5],[1,0.5]];portConstraint=eastwest;rotatable=0;whiteSpace=wrap;html=1;" parent="VqCOLRqgt1VcQ0-lmkxe-99" vertex="1">
          <mxGeometry y="30" width="140" height="30" as="geometry" />
        </mxCell>
        <mxCell id="VqCOLRqgt1VcQ0-lmkxe-103" value="고객상태구분" style="text;strokeColor=#d6b656;fillColor=#fff2cc;align=left;verticalAlign=middle;spacingLeft=4;spacingRight=4;overflow=hidden;points=[[0,0.5],[1,0.5]];portConstraint=eastwest;rotatable=0;whiteSpace=wrap;html=1;" parent="VqCOLRqgt1VcQ0-lmkxe-99" vertex="1">
          <mxGeometry y="60" width="140" height="30" as="geometry" />
        </mxCell>
        <mxCell id="sUq8-6tqsxKxLqX5HSXo-1" value="고객 Full Name명" style="text;strokeColor=none;fillColor=none;align=left;verticalAlign=middle;spacingLeft=4;spacingRight=4;overflow=hidden;points=[[0,0.5],[1,0.5]];portConstraint=eastwest;rotatable=0;whiteSpace=wrap;html=1;" vertex="1" parent="VqCOLRqgt1VcQ0-lmkxe-99">
          <mxGeometry y="90" width="140" height="30" as="geometry" />
        </mxCell>
        <mxCell id="VqCOLRqgt1VcQ0-lmkxe-104" value="&lt;h2&gt;고객명기본&lt;/h2&gt;" style="swimlane;fontStyle=0;childLayout=stackLayout;horizontal=1;startSize=30;horizontalStack=0;resizeParent=1;resizeParentMax=0;resizeLast=0;collapsible=1;marginBottom=0;whiteSpace=wrap;html=1;fillColor=#e1d5e7;strokeColor=#9673a6;" parent="1" vertex="1">
          <mxGeometry x="-180" y="720" width="140" height="120" as="geometry" />
        </mxCell>
        <mxCell id="VqCOLRqgt1VcQ0-lmkxe-105" value="고객식별자(PK)" style="text;strokeColor=#d6b656;fillColor=#fff2cc;align=left;verticalAlign=middle;spacingLeft=4;spacingRight=4;overflow=hidden;points=[[0,0.5],[1,0.5]];portConstraint=eastwest;rotatable=0;whiteSpace=wrap;html=1;" parent="VqCOLRqgt1VcQ0-lmkxe-104" vertex="1">
          <mxGeometry y="30" width="140" height="30" as="geometry" />
        </mxCell>
        <mxCell id="4wuuRACcNvZBL3jS0M6k-1" value="이름순서(PK)" style="text;strokeColor=#d6b656;fillColor=#fff2cc;align=left;verticalAlign=middle;spacingLeft=4;spacingRight=4;overflow=hidden;points=[[0,0.5],[1,0.5]];portConstraint=eastwest;rotatable=0;whiteSpace=wrap;html=1;" parent="VqCOLRqgt1VcQ0-lmkxe-104" vertex="1">
          <mxGeometry y="60" width="140" height="30" as="geometry" />
        </mxCell>
        <mxCell id="4wuuRACcNvZBL3jS0M6k-67" value="이름" style="text;strokeColor=none;fillColor=none;align=left;verticalAlign=middle;spacingLeft=4;spacingRight=4;overflow=hidden;points=[[0,0.5],[1,0.5]];portConstraint=eastwest;rotatable=0;whiteSpace=wrap;html=1;" parent="VqCOLRqgt1VcQ0-lmkxe-104" vertex="1">
          <mxGeometry y="90" width="140" height="30" as="geometry" />
        </mxCell>
        <mxCell id="VqCOLRqgt1VcQ0-lmkxe-111" value="&lt;h2&gt;상품기본&lt;/h2&gt;" style="swimlane;fontStyle=0;childLayout=stackLayout;horizontal=1;startSize=30;horizontalStack=0;resizeParent=1;resizeParentMax=0;resizeLast=0;collapsible=1;marginBottom=0;whiteSpace=wrap;html=1;fillColor=#d5e8d4;strokeColor=#82b366;" parent="1" vertex="1">
          <mxGeometry x="-400" y="730" width="140" height="60" as="geometry" />
        </mxCell>
        <mxCell id="VqCOLRqgt1VcQ0-lmkxe-112" value="상품코드" style="text;strokeColor=#d6b656;fillColor=#fff2cc;align=left;verticalAlign=middle;spacingLeft=4;spacingRight=4;overflow=hidden;points=[[0,0.5],[1,0.5]];portConstraint=eastwest;rotatable=0;whiteSpace=wrap;html=1;" parent="VqCOLRqgt1VcQ0-lmkxe-111" vertex="1">
          <mxGeometry y="30" width="140" height="30" as="geometry" />
        </mxCell>
        <mxCell id="VqCOLRqgt1VcQ0-lmkxe-115" value="" style="endArrow=ERone;html=1;rounded=0;startArrow=ERzeroToMany;startFill=0;endFill=0;" parent="1" edge="1">
          <mxGeometry width="50" height="50" relative="1" as="geometry">
            <mxPoint x="-450" y="770.42" as="sourcePoint" />
            <mxPoint x="-400" y="770" as="targetPoint" />
          </mxGeometry>
        </mxCell>
      </root>
    </mxGraphModel>
  </diagram>
</mxfile>
